<?xml version="1.0" encoding="UTF-8"?>
<svg xmlns="http://www.w3.org/2000/svg" width="189" height="61" viewBox="0 0 189 61" fill="none">
  <rect x="0.0292358" y="0.466797" width="60.2419" height="60" fill="white"></rect>
  <path d="M28.9478 2.91016H2.47711V29.3857H28.9478V2.91016Z" fill="#FEC526"></path>
  <path d="M20.2124 25.2847V20.9104C20.2124 19.1028 20.238 17.4571 20.3147 16.0417C19.7607 17.4059 18.8232 19.5291 18.1926 20.8337L15.7892 25.9071L13.3859 20.8337C12.7638 19.5206 11.8178 17.3974 11.2638 16.0417C11.3405 17.4571 11.3661 19.1028 11.3661 20.9104V25.2847H6.60205V6.95215H11.2638L13.5137 11.8465C14.6046 14.1999 15.5336 16.3486 15.8148 17.3718C16.1301 16.323 16.9653 14.3363 18.1244 11.8465L20.3743 6.95215H24.9849V25.2847H20.2209H20.2124Z" fill="white"></path>
  <path d="M29.0252 31.6113H2.5545V58.0954H29.0252V31.6113Z" fill="#081A72"></path>
  <path d="M15.73 54.301C10.7614 54.301 7.28424 50.9756 7.28424 44.8704C7.28424 38.7653 10.8211 35.3887 15.7896 35.3887C20.7667 35.3887 24.2439 38.7141 24.2439 44.8193C24.2439 50.9244 20.7071 54.301 15.73 54.301ZM15.73 39.8226C13.6931 39.8226 12.5426 41.5194 12.5426 44.8278C12.5426 48.1362 13.7442 49.8842 15.7896 49.8842C17.835 49.8842 18.9855 48.1788 18.9855 44.8789C18.9855 41.5791 17.7754 39.8226 15.7385 39.8226" fill="white"></path>
  <path d="M57.8473 31.6113H31.3851V58.0869H57.8473V31.6113Z" fill="#081A72"></path>
  <path d="M47.3221 40.078V53.9851H42.2513V40.078H37.1208V35.6611H52.4527V40.078H47.3221Z" fill="white"></path>
  <path d="M57.8473 2.91016H31.3851V29.3857H57.8473V2.91016Z" fill="#081A72"></path>
  <path d="M46.1801 25.2243H37.4446V6.99414H46.2398C50.7652 6.99414 52.6146 8.68244 52.6146 11.735C52.6146 13.7132 51.643 14.6 50.4243 15.2992C52.0691 15.9984 53.0322 17.2774 53.0322 19.3324C53.0322 23.0585 50.7652 25.2158 46.1801 25.2158M46.0779 10.9761H42.2769V13.8411H46.0779C47.2454 13.8411 47.663 13.2698 47.663 12.4086C47.663 11.5986 47.2625 10.9761 46.0779 10.9761ZM46.2824 17.6952H42.2769V21.2338H46.2568C47.5011 21.2338 48.0806 20.4835 48.0806 19.4432C48.0806 18.3688 47.4841 17.6952 46.2824 17.6952Z" fill="white"></path>
  <path d="M80.5752 29.3403V22.3246C80.5752 21.5249 80.5752 20.3798 80.6115 19.9981C80.448 20.3798 80.0847 21.3249 79.7577 22.0883L76.5423 29.5584L73.3632 22.0883C73.0544 21.3249 72.6547 20.3798 72.5094 19.9981C72.5276 20.3798 72.5639 21.543 72.5639 22.3246V29.3403H70.6746V16.0723H72.7274L75.7066 23.1425C76.0336 23.9058 76.4333 24.8691 76.5968 25.4144C76.7966 24.8691 77.1781 23.9058 77.5051 23.1425L80.4117 16.0723H82.5371V29.3403H80.5933H80.5752Z" fill="white"></path>
  <path d="M87.5549 16.0459H85.5566V29.3139H87.5549V16.0459Z" fill="white"></path>
  <path d="M94.5671 29.5142C92.6233 29.5142 90.952 28.6963 89.8439 27.3695L91.2427 25.9882C92.151 26.9514 93.4589 27.5512 94.7124 27.5512C96.5653 27.5512 97.4555 26.9151 97.4555 25.6247C97.4555 24.6068 96.6925 24.0979 94.4581 23.4254C91.6605 22.5894 90.3162 21.8987 90.3162 19.5177C90.3162 17.2276 92.26 15.8281 94.6942 15.8281C96.4927 15.8281 97.8551 16.4824 99.0359 17.6275L97.6371 19.0452C96.8015 18.1909 95.8569 17.7729 94.5489 17.7729C92.9866 17.7729 92.3326 18.5363 92.3326 19.4269C92.3326 20.3174 92.9503 20.8082 95.2211 21.4988C97.837 22.2986 99.4719 23.1346 99.4719 25.4974C99.4719 27.8602 97.9641 29.5142 94.5671 29.5142Z" fill="white"></path>
  <path d="M105.957 29.5142C104.032 29.5142 102.36 28.6963 101.234 27.3695L102.651 25.9882C103.541 26.9514 104.849 27.5512 106.103 27.5512C107.956 27.5512 108.846 26.9151 108.846 25.6247C108.846 24.6068 108.083 24.0979 105.848 23.4254C103.033 22.5894 101.706 21.8987 101.706 19.5177C101.706 17.1368 103.632 15.8281 106.066 15.8281C107.865 15.8281 109.227 16.4824 110.408 17.6275L109.009 19.0452C108.174 18.1909 107.211 17.7729 105.921 17.7729C104.359 17.7729 103.687 18.5363 103.687 19.4269C103.687 20.3538 104.304 20.8082 106.593 21.4988C109.191 22.2986 110.826 23.1346 110.826 25.4974C110.826 27.8602 109.318 29.5142 105.921 29.5142" fill="white"></path>
  <path d="M115.44 16.0459H113.442V29.3139H115.44V16.0459Z" fill="white"></path>
  <path d="M122.47 29.5142C120.545 29.5142 118.855 28.6963 117.747 27.3695L119.164 25.9882C120.054 26.9514 121.362 27.5512 122.615 27.5512C124.468 27.5512 125.359 26.9151 125.359 25.6247C125.359 24.6068 124.596 24.0979 122.379 23.4254C119.564 22.5894 118.219 21.8987 118.219 19.5177C118.219 17.1368 120.163 15.8281 122.597 15.8281C124.396 15.8281 125.758 16.4824 126.939 17.6275L125.54 19.0452C124.705 18.1909 123.76 17.7729 122.452 17.7729C120.89 17.7729 120.236 18.5363 120.236 19.4269C120.236 20.3538 120.835 20.8082 123.142 21.4988C125.758 22.2986 127.375 23.1346 127.375 25.4974C127.375 27.8602 125.867 29.5142 122.47 29.5142Z" fill="white"></path>
  <path d="M133.442 29.5142C131.517 29.5142 129.846 28.6963 128.719 27.3695L130.154 25.9882C131.026 26.9514 132.353 27.5512 133.606 27.5512C135.459 27.5512 136.349 26.9151 136.349 25.6247C136.349 24.6068 135.568 24.0979 133.37 23.4254C130.572 22.5894 129.21 21.8987 129.21 19.5177C129.21 17.1368 131.154 15.8281 133.606 15.8281C135.404 15.8281 136.749 16.4824 137.93 17.6275L136.531 19.0452C135.695 18.1909 134.769 17.7729 133.442 17.7729C131.88 17.7729 131.226 18.5363 131.226 19.4269C131.226 20.3538 131.844 20.8082 134.133 21.4988C136.749 22.2986 138.366 23.1346 138.366 25.4974C138.366 27.8602 136.858 29.5142 133.461 29.5142" fill="white"></path>
  <path d="M149.084 29.3139L147.957 26.1696H142.671L141.563 29.3139H139.51L144.27 16.0459H146.377L151.209 29.3139H149.084ZM146.304 21.3349C145.977 20.3716 145.45 18.8449 145.305 18.2815C145.16 18.8631 144.687 20.3716 144.324 21.3531L143.271 24.3884H147.358L146.286 21.3349H146.304Z" fill="white"></path>
  <path d="M157.186 29.5138C153.916 29.5138 152.208 27.4055 152.208 23.7341V16.0459H154.206V23.6796C154.206 26.1878 155.242 27.5327 157.222 27.5327C159.311 27.5327 160.292 26.2423 160.292 23.8249V16.0459H162.29V23.7886C162.29 27.4964 160.492 29.532 157.186 29.532" fill="white"></path>
  <path d="M170.156 29.5142C166.723 29.5142 164.561 26.697 164.561 22.6802C164.561 18.6635 166.741 15.8281 170.156 15.8281C172.318 15.8281 173.772 16.7005 174.662 18.3182L172.918 19.3905C172.246 18.3182 171.519 17.8274 170.156 17.8274C167.849 17.8274 166.578 19.6995 166.578 22.6802C166.578 25.661 167.849 27.5331 170.156 27.5331C172.318 27.5331 173.172 26.1154 173.172 24.5523V24.4978H171.01V22.5894H175.207V24.1343C175.207 27.5512 173.118 29.5323 170.156 29.5323" fill="white"></path>
  <path d="M185.961 29.3139L184.853 26.1696H179.548L178.44 29.3139H176.387L181.147 16.0459H183.254L188.086 29.3139H185.961ZM183.182 21.3349C182.873 20.3716 182.328 18.8449 182.182 18.2815C182.037 18.8631 181.547 20.3716 181.22 21.3531L180.166 24.3884H184.253L183.182 21.3349Z" fill="white"></path>
  <path d="M74.8009 44.9387H70.6591V34.4697H74.9463C76.7629 34.4697 77.9437 35.433 77.9437 37.196C77.9437 38.2684 77.3805 38.9227 76.5994 39.2862C77.435 39.5225 78.3615 40.2677 78.3615 41.7217C78.3615 43.8482 77.0717 44.9387 74.7828 44.9387M74.9281 35.9238H72.1123V38.6319H74.9281C75.9636 38.6319 76.3632 37.9957 76.3632 37.3051C76.3632 36.5235 75.9636 35.9419 74.9281 35.9419M74.9463 40.0496H72.1123V43.5211H74.8918C76.2906 43.5211 76.7992 42.8122 76.7992 41.7762C76.7992 40.7402 76.1271 40.0314 74.9463 40.0314" fill="white"></path>
  <path d="M83.8476 45.1028C81.1409 45.1028 79.4151 42.8672 79.4151 39.7047C79.4151 36.524 81.1409 34.3066 83.8476 34.3066C86.5544 34.3066 88.2983 36.524 88.2983 39.7047C88.2983 42.8854 86.5544 45.1028 83.8476 45.1028ZM83.8476 35.8697C82.0129 35.8697 81.0319 37.3601 81.0319 39.7047C81.0319 42.0493 82.031 43.5215 83.8476 43.5215C85.6643 43.5215 86.6816 42.0493 86.6816 39.7047C86.6816 37.3601 85.6824 35.8697 83.8476 35.8697Z" fill="white"></path>
  <path d="M96.0553 44.9387L95.1652 42.4487H90.9869L90.1331 44.9387H88.4982L92.2586 34.4697H93.9117L97.7266 44.9387H96.0735H96.0553ZM93.8572 38.6501C93.621 37.9049 93.185 36.6871 93.0579 36.2509C92.9489 36.6871 92.5674 37.8867 92.2949 38.6682L91.4411 41.0492H94.6928L93.8572 38.6501Z" fill="white"></path>
  <path d="M104.43 40.6675L106.555 44.9387H104.757L102.686 40.7948H100.306V44.9387H98.7803V34.4697H103.358C105.175 34.4697 106.719 35.4512 106.719 37.5959C106.719 39.268 105.847 40.304 104.43 40.6675ZM103.358 35.9601H100.306V39.3225H103.358C104.412 39.3225 105.138 38.7955 105.138 37.6504C105.138 36.5599 104.43 35.9601 103.358 35.9601Z" fill="white"></path>
  <path d="M111.26 44.9387H108.408V34.4697H111.26C114.058 34.4697 116.347 35.9965 116.347 39.7042C116.347 43.3938 113.985 44.9206 111.26 44.9206M111.26 35.9783H109.971V43.3938H111.26C113.749 43.3938 114.748 41.8853 114.748 39.6861C114.748 37.4868 113.731 35.9783 111.26 35.9783Z" fill="white"></path>
  <path d="M126.267 45.1028C123.578 45.1028 121.852 42.8672 121.852 39.7047C121.852 36.5422 123.578 34.3066 126.267 34.3066C128.955 34.3066 130.717 36.524 130.717 39.7047C130.717 42.8854 128.991 45.1028 126.267 45.1028ZM126.267 35.8697C124.45 35.8697 123.451 37.3601 123.451 39.7047C123.451 42.0493 124.468 43.5215 126.267 43.5215C128.065 43.5215 129.119 42.0493 129.119 39.7047C129.119 37.3601 128.119 35.8697 126.267 35.8697Z" fill="white"></path>
  <path d="M133.696 36.0146V38.7591H136.694V40.2858H133.696V44.9387H132.116V34.4697H138.838V36.0146H133.696Z" fill="white"></path>
  <path d="M148.665 36.0146V44.9387H147.103V36.0146H144.051V34.4697H151.699V36.0146H148.665Z" fill="white"></path>
  <path d="M158.584 40.6675L160.727 44.9387H158.929L156.84 40.7948H154.497V44.9387H152.952V34.4697H157.548C159.365 34.4697 160.909 35.4512 160.909 37.5959C160.909 39.268 160.037 40.304 158.602 40.6675M157.548 35.9601H154.497V39.3225H157.548C158.584 39.3225 159.329 38.7955 159.329 37.6504C159.329 36.5054 158.602 35.9601 157.548 35.9601Z" fill="white"></path>
  <path d="M168.975 44.9387L168.103 42.4487H163.925L163.053 44.9387H161.418L165.196 34.4697H166.85L170.664 44.9387H168.993H168.975ZM166.777 38.6501C166.523 37.9049 166.105 36.6871 165.978 36.2509C165.869 36.6871 165.505 37.8867 165.233 38.6682L164.397 41.0492H167.631L166.795 38.6501H166.777Z" fill="white"></path>
  <path d="M174.697 44.9387H171.845V34.4697H174.697C177.513 34.4697 179.784 35.9965 179.784 39.7042C179.784 43.3938 177.422 44.9206 174.697 44.9206M174.697 35.9783H173.407V43.3938H174.697C177.186 43.3938 178.185 41.8853 178.185 39.6861C178.185 37.4868 177.186 35.9783 174.697 35.9783Z" fill="white"></path>
  <path d="M181.292 44.9387V34.4697H188.031V36.0146H182.854V38.5955H185.851V40.1223H182.854V43.412H188.249V44.9387H181.292Z" fill="white"></path>
</svg>
